<?xml version="1.0" encoding="utf-8"?>
<!-- Generator: Adobe Illustrator 17.1.0, SVG Export Plug-In . SVG Version: 6.00 Build 0)  -->
<!DOCTYPE svg PUBLIC "-//W3C//DTD SVG 1.1//EN" "http://www.w3.org/Graphics/SVG/1.1/DTD/svg11.dtd">
<svg version="1.1" id="Layer_1" xmlns="http://www.w3.org/2000/svg" xmlns:xlink="http://www.w3.org/1999/xlink" x="0px" y="0px"
	 viewBox="0 0 245.1 254.5" enable-background="new 0 0 245.1 254.5" xml:space="preserve">
<g>
	<path fill="#FFFFFF" d="M179.6,208.1c-18-11.1-35.9-22.1-53.9-33.1c-18,11-35.8,22-53.9,33.1C52.8,193.1,34,178,14.7,162.6
		c8.5-38.6,16.9-77.1,25.5-116.2c14.2,8.2,27.9,16.1,41.9,24.2c14.3-7,28.8-14,43.5-21.2c14.3,7,28.7,14,43.4,21.2
		c13.7-7.9,27.5-15.9,41.9-24.1c8.6,38.9,17,77.2,25.6,116.2C217.4,177.8,198.5,192.9,179.6,208.1z M118.5,159.5
		c0-29.2,0-57.9,0-87.6c-10.4,5.1-20.3,9.9-30.4,14.8c-2.8,32.1-5.6,63.8-8.5,96.7C93.3,175.1,105.9,167.3,118.5,159.5z
		 M220.3,154.5c-6.2-28-12.2-55.3-18.4-83.4c-8.9,5.2-17.4,10.1-26.1,15.1c2.8,32.3,5.6,64.1,8.5,97
		C196.8,173.3,208.4,164,220.3,154.5z M162,86.2c-9.8-4.7-19.3-9.4-29.4-14.3c0,29.7,0,58.4,0,87.6c12.3,7.6,24.6,15.1,37.8,23.2
		C167.6,149.9,164.8,118.4,162,86.2z M65.8,182.4c2.9-33.1,5.7-64.8,8.5-96.8c-8.5-4.9-16.5-9.6-25-14.5
		C43,99.3,37,126.7,30.9,154.5C42.3,163.6,53.6,172.6,65.8,182.4z"/>
</g>
</svg>
