<?xml version="1.0" encoding="utf-8"?>
<!-- Generator: Adobe Illustrator 17.1.0, SVG Export Plug-In . SVG Version: 6.00 Build 0)  -->
<!DOCTYPE svg PUBLIC "-//W3C//DTD SVG 1.1//EN" "http://www.w3.org/Graphics/SVG/1.1/DTD/svg11.dtd">
<svg version="1.1" id="Layer_1" xmlns="http://www.w3.org/2000/svg" xmlns:xlink="http://www.w3.org/1999/xlink" x="0px" y="0px"
	 viewBox="0 0 245 501.8" enable-background="new 0 0 245 501.8" xml:space="preserve">
<g display="none">
	<path display="inline" fill="#FFFFFF" d="M179.1,330.9c-18-11.1-35.9-22.1-53.9-33.1c-18,11-35.8,22-53.9,33.1
		c-18.9-15.1-37.7-30.1-56.9-45.6c8.5-38.6,16.9-77.1,25.5-116.2c14.2,8.2,27.9,16.1,41.9,24.2c14.3-7,28.8-14,43.5-21.2
		c14.3,7,28.7,14,43.4,21.2c13.7-7.9,27.5-15.9,41.9-24.1c8.6,38.9,17,77.2,25.6,116.2C217,300.5,198.1,315.7,179.1,330.9z
		 M118.1,282.3c0-29.2,0-57.9,0-87.6c-10.4,5.1-20.3,9.9-30.4,14.8c-2.8,32.1-5.6,63.8-8.5,96.7C92.9,297.8,105.5,290,118.1,282.3z
		 M219.9,277.2c-6.2-28-12.2-55.3-18.4-83.4c-8.9,5.2-17.4,10.1-26.1,15.1c2.8,32.3,5.6,64.1,8.5,97
		C196.4,296.1,208,286.8,219.9,277.2z M161.6,208.9c-9.8-4.7-19.3-9.4-29.4-14.3c0,29.7,0,58.4,0,87.6c12.3,7.6,24.6,15.1,37.8,23.2
		C167.2,272.6,164.4,241.1,161.6,208.9z M65.4,305.1c2.9-33.1,5.7-64.8,8.5-96.8c-8.5-4.9-16.5-9.6-25-14.5
		c-6.2,28.2-12.2,55.6-18.3,83.3C41.9,286.4,53.2,295.4,65.4,305.1z"/>
</g>
<g>
	<path fill="#FFFFFF" d="M152.4,74.4c0,17.1,0.1,34.3-0.1,51.4c0,1.9-1.6,4.8-3.2,5.7c-18.6,9.6-37.4,18.8-56.1,28.3
		c-3.5,1.8-4.6,1.8-4.6-2.7c0.2-34.3,0-68.6,0.2-102.9c0-1.9,1.6-4.8,3.3-5.7c18.6-9.6,37.4-18.8,56.1-28.3c3.5-1.8,4.7-1.7,4.6,2.8
		C152.2,40.1,152.4,57.3,152.4,74.4z"/>
	<path fill="#FFFFFF" d="M75.9,105c0,16.8,0,33.7,0,50.5c0,1.4-0.5,2.8-0.7,4.2c-1.2-0.5-2.4-0.9-3.5-1.6
		C59.4,150.8,47,143.6,34.9,136c-1.9-1.2-3.7-4.3-3.7-6.5C31,95.8,31,62.1,31.1,28.5c0-1.4,0.4-2.8,0.7-4.2c1.3,0.6,2.7,1,4,1.7
		C47.9,33.3,60.1,40.4,72,48c1.9,1.2,3.7,4.3,3.7,6.5C76.1,71.3,75.9,88.2,75.9,105z"/>
	<path fill="#FFFFFF" d="M164.7,74.5c0-16.6,0-33.3,0-49.9c0-1.4,0.4-2.8,0.7-4.2c1.3,0.6,2.7,1,4,1.7c12.1,7.2,24.3,14.4,36.2,21.9
		c1.9,1.2,3.8,4.3,3.8,6.5c0.2,33.8,0.1,67.6,0.1,101.3c0,1.3-0.3,2.6-0.4,3.9c-1.3-0.5-2.8-0.8-4-1.5c-12-7.1-24.1-14.1-35.8-21.7
		c-2.2-1.4-4.3-5-4.4-7.6C164.6,108.1,164.8,91.3,164.7,74.5C164.8,74.5,164.8,74.5,164.7,74.5z"/>
</g>
<g>
	<path fill="#D2EEFC" d="M152.4,395.8c0,17.1,0.1,34.3-0.1,51.4c0,1.9-1.6,4.8-3.2,5.7c-18.6,9.6-37.4,18.8-56.1,28.3
		c-3.5,1.8-4.6,1.8-4.6-2.7c0.2-34.3,0-68.6,0.2-102.9c0-1.9,1.6-4.8,3.3-5.7c18.6-9.6,37.4-18.8,56.1-28.3c3.5-1.8,4.7-1.7,4.6,2.8
		C152.2,361.5,152.4,378.7,152.4,395.8z"/>
	<path fill="#D2EEFC" d="M75.9,426.4c0,16.8,0,33.7,0,50.5c0,1.4-0.5,2.8-0.7,4.2c-1.2-0.5-2.4-0.9-3.5-1.6
		C59.4,472.2,47,465,34.9,457.4c-1.9-1.2-3.7-4.3-3.7-6.5c-0.2-33.7-0.2-67.3-0.1-101c0-1.4,0.4-2.8,0.7-4.2c1.3,0.6,2.7,1,4,1.7
		c12.1,7.3,24.3,14.4,36.3,22c1.9,1.2,3.7,4.3,3.7,6.5C76.1,392.7,75.9,409.5,75.9,426.4z"/>
	<path fill="#D2EEFC" d="M164.7,395.8c0-16.6,0-33.3,0-49.9c0-1.4,0.4-2.8,0.7-4.2c1.3,0.6,2.7,1,4,1.7
		c12.1,7.2,24.3,14.4,36.2,21.9c1.9,1.2,3.8,4.3,3.8,6.5c0.2,33.8,0.1,67.6,0.1,101.3c0,1.3-0.3,2.6-0.4,3.9c-1.3-0.5-2.8-0.8-4-1.5
		c-12-7.1-24.1-14.1-35.8-21.7c-2.2-1.4-4.3-5-4.4-7.6C164.6,429.5,164.8,412.6,164.7,395.8C164.8,395.8,164.8,395.8,164.7,395.8z"
		/>
</g>
</svg>
