<?xml version="1.0" encoding="utf-8"?>
<!-- Generator: Adobe Illustrator 17.1.0, SVG Export Plug-In . SVG Version: 6.00 Build 0)  -->
<!DOCTYPE svg PUBLIC "-//W3C//DTD SVG 1.1//EN" "http://www.w3.org/Graphics/SVG/1.1/DTD/svg11.dtd">
<svg version="1.1" id="Layer_1" xmlns="http://www.w3.org/2000/svg" xmlns:xlink="http://www.w3.org/1999/xlink" x="0px" y="0px"
	 viewBox="0 0 245.1 254.5" enable-background="new 0 0 245.1 254.5" xml:space="preserve">
<g display="none">
	<path display="inline" fill="#FFFFFF" d="M179.6,208.1c-18-11.1-35.9-22.1-53.9-33.1c-18,11-35.8,22-53.9,33.1
		C52.8,193.1,34,178,14.7,162.6c8.5-38.6,16.9-77.1,25.5-116.2c14.2,8.2,27.9,16.1,41.9,24.2c14.3-7,28.8-14,43.5-21.2
		c14.3,7,28.7,14,43.4,21.2c13.7-7.9,27.5-15.9,41.9-24.1c8.6,38.9,17,77.2,25.6,116.2C217.4,177.8,198.5,192.9,179.6,208.1z
		 M118.5,159.5c0-29.2,0-57.9,0-87.6c-10.4,5.1-20.3,9.9-30.4,14.8c-2.8,32.1-5.6,63.8-8.5,96.7C93.3,175.1,105.9,167.3,118.5,159.5
		z M220.3,154.5c-6.2-28-12.2-55.3-18.4-83.4c-8.9,5.2-17.4,10.1-26.1,15.1c2.8,32.3,5.6,64.1,8.5,97
		C196.8,173.3,208.4,164,220.3,154.5z M162,86.2c-9.8-4.7-19.3-9.4-29.4-14.3c0,29.7,0,58.4,0,87.6c12.3,7.6,24.6,15.1,37.8,23.2
		C167.6,149.9,164.8,118.4,162,86.2z M65.8,182.4c2.9-33.1,5.7-64.8,8.5-96.8c-8.5-4.9-16.5-9.6-25-14.5
		C43,99.3,37,126.7,30.9,154.5C42.3,163.6,53.6,172.6,65.8,182.4z"/>
</g>
<g>
	<path fill="#FFFFFF" d="M222.4,217c-19.8-11.9-39.6-23.8-59.6-35.4c-2.2-1.3-6.1-1.4-8.3-0.3c-23.2,11.3-46.1,22.9-69.3,34.3
		c-1.6,0.8-4.3,0.7-5.7-0.1c-19.5-11.5-38.9-23.1-58.2-34.9c-1.5-0.9-2.7-3.6-2.7-5.5c-0.2-43.8-0.1-87.6-0.2-131.4
		c0-4.3,1-4.3,4.2-2.3c18.3,11.1,36.7,22.3,55.2,33.1c2.3,1.3,6.4,1.6,8.8,0.4c23.2-11.2,46.1-23,69.3-34.3c1.8-0.9,5.1-0.1,7,1
		c19.9,11.7,39.7,23.7,59.5,35.6C222.4,123.7,222.4,170.4,222.4,217z M152.4,112.5c0-17.1-0.1-34.3,0.1-51.4
		c0.1-4.5-1.1-4.6-4.6-2.8c-18.7,9.5-37.5,18.7-56.1,28.3c-1.7,0.9-3.2,3.7-3.3,5.7c-0.2,34.3-0.1,68.6-0.2,102.9
		c0,4.5,1.1,4.5,4.6,2.7c18.7-9.5,37.5-18.7,56.1-28.3c1.7-0.9,3.2-3.7,3.2-5.7C152.5,146.8,152.4,129.6,152.4,112.5z M76,143
		c0-16.8,0.1-33.7-0.2-50.5c0-2.2-1.8-5.3-3.7-6.5c-11.9-7.6-24.1-14.7-36.3-22c-1.2-0.7-2.6-1.2-4-1.7c-0.2,1.4-0.7,2.8-0.7,4.2
		c0,33.7-0.1,67.3,0.1,101c0,2.2,1.8,5.3,3.7,6.5c12.1,7.6,24.4,14.9,36.7,22.2c1.1,0.7,2.3,1,3.5,1.6c0.3-1.4,0.7-2.8,0.7-4.2
		C76,176.7,76,159.9,76,143z M164.8,112.5C164.8,112.5,164.8,112.5,164.8,112.5c0,16.8-0.2,33.6,0.2,50.4c0.1,2.6,2.2,6.2,4.4,7.6
		c11.7,7.5,23.8,14.5,35.8,21.7c1.2,0.7,2.6,1,4,1.5c0.1-1.3,0.4-2.6,0.4-3.9c0-33.8,0.1-67.6-0.1-101.3c0-2.2-1.9-5.3-3.8-6.5
		c-11.9-7.5-24.1-14.7-36.2-21.9c-1.2-0.7-2.6-1.2-4-1.7c-0.2,1.4-0.7,2.8-0.7,4.2C164.8,79.2,164.8,95.9,164.8,112.5z"/>
</g>
</svg>
