<?xml version="1.0" encoding="utf-8"?>
<!-- Generator: Adobe Illustrator 18.1.0, SVG Export Plug-In . SVG Version: 6.00 Build 0)  -->
<svg version="1.1" id="Layer_1" xmlns="http://www.w3.org/2000/svg" xmlns:xlink="http://www.w3.org/1999/xlink" x="0px" y="0px"
	 viewBox="0 0 146.7 390" enable-background="new 0 0 146.7 390" xml:space="preserve">
<rect x="-24.8" y="-5.4" display="none" fill="#231F20" width="193.9" height="146.6"/>
<path fill="#FFFFFF" d="M4.5,61.6c12.4,0,24.7,0,37.3,0c0.2-18.3,0.4-36.5,0.6-54.8c10.8,0,21.4,0,32.1,0c0,0.6,0,1.1,0,1.6
	c0,6.2,0,12.3,0,18.5c0,2.4,1.4,4.1,3.3,5.2c0.6,0.3,1.6,0.2,2.3,0c1.3-0.4,2.2-0.2,2.5,1.1c0.2,1,0.7,1.2,1.5,1.3
	c1.4,0.2,2.8,0.1,4.1,0.6c1.8,0.7,3.5,0.3,5.3,0.4c0.3,0,0.6,0.1,1,0.2c0.2,0.8-0.1,2,1.3,1.9c0.1,0,0.2,0.3,0.3,0.4
	c0.3,1.1,0.9,0.8,1.6,0.4c0.4-0.3,0.8-0.6,1.3-0.8c0.3-0.1,0.8-0.1,0.9,0c1.1,1.5,2.5,1.6,4,0.7c0.1,0.7,0.2,1.3,0.3,2.2
	c0.4-0.6,0.5-0.8,0.7-1c0.8-0.9,1.3-2.7,2.9-0.9c0.1,0.2,0.6,0.2,0.8,0.1c2.1-1,2.8,0.9,3.9,1.8c1-0.5,2.1-1.1,3.2-1.5
	c0.5-0.2,1.1,0,1.6-0.1c2-0.4,3.9-0.8,6-0.3c0.3,0.1,0.7-0.4,1.1-0.8c0.6,0.3,1.2,0.7,1.9,1c1.4,0.7,2.9,1.2,4.4,1.9
	c0.7,0.3,1.3,0.8,2,1.2c0.4,0.2,0.8,0.4,1.3,0.5c1,0.1,1.9,0.1,3,0.2c0,1.8,0,3.5,0,5.2c0,4.2,0,8.4,0,12.6c0,0.8,0.4,1.6,0.8,2.3
	c0.7,1.2,2.2,2.1,1.5,3.9c-0.1,0.2,0.1,0.5,0.3,0.7c2,2.5,3,5.3,2.4,8.5c-0.1,0.7-0.4,1.5-0.7,2.1c-0.9,1.8-1.3,3.6-0.8,5.7
	c0.2,0.9-0.3,2.1-0.8,3c-0.8,1.3-1.7,2.4-0.5,3.8c-3.5,0.2-6.4,1.7-8.7,3.8c-5.4,4.7-11.3,8.6-17.4,12.2
	c-6.4,3.7-10.9,9.1-10.9,17.1c0,1.6,0.7,3.2,1,4.8c0.6,2.6,1.1,5.2,1.6,7.7c-0.8,0.5-1.4,0.8-2,1.1c-1.2,0.7-2.3,0.3-2.9-0.6
	c-0.9-1.3-2.1-1.5-3.4-1.5c-2.1-0.1-4-0.2-5.9-1.7c-1.6-1.2-3.8-1.7-5.7-2.3c-1.4-0.4-1.4-1.7-1.9-2.6c-0.7-1.1-1.1-2.5-1.8-3.6
	c-0.6-1.1-1.3-2.1-1.2-3.5c0-1.2-0.2-2.4-0.4-3.6c-0.1-0.9-0.6-1.5-1.5-2.1c-1.1-0.8-2-2-2.9-3.1c-0.6-0.7-0.8-1.8-1.5-2.4
	c-2.7-2.1-3.9-5.1-4.9-8.1c-1.3-3.7-3.7-6.3-6.2-9.1C60.4,90.4,58,89,54.7,89c-1,0-2-0.3-3.1-0.5c-0.8-0.1-1.8-0.9-2.3,0.6
	c-0.1,0.3-1.3,0.4-2,0.5c-0.8,0.1-1.3,0.4-1.5,1.2c-0.5,1.6-1.1,3.1-1.6,4.6c-0.2,0.4-0.5,0.8-0.9,1.2c-0.4,0.4-1,0.7-1.2,1.1
	c-0.7,1.5-1.8,1.2-2.8,0.7c-3.8-2.1-8-3.4-11.1-6.5c-1.4-1.4-2.3-3.2-3.4-4.8c0-0.1-0.1-0.2,0-0.3c0.7-2-0.9-3.3-1.4-4.9
	c-0.9-3.3-3.5-4.5-5.8-6.3c-1.9-1.4-3.5-3.2-5.2-4.8c-0.2-0.2-0.4-0.6-0.7-0.7c-1.9-1.1-3.5-2.4-4.4-4.5c-0.1-0.3-0.7-0.4-1.1-0.6
	C4.9,64.3,4.4,63.5,4.5,61.6z"/>
<path fill="#D2F1FF" d="M4.5,306.7c12.4,0,24.7,0,37.3,0c0.2-18.3,0.4-36.5,0.6-54.8c10.8,0,21.4,0,32.1,0c0,0.6,0,1.1,0,1.6
	c0,6.2,0,12.3,0,18.5c0,2.4,1.4,4.1,3.3,5.2c0.6,0.3,1.6,0.2,2.3,0c1.3-0.4,2.2-0.2,2.5,1.1c0.2,1,0.7,1.2,1.5,1.3
	c1.4,0.2,2.8,0.1,4.1,0.6c1.8,0.7,3.5,0.3,5.3,0.4c0.3,0,0.6,0.1,1,0.2c0.2,0.8-0.1,2,1.3,1.9c0.1,0,0.2,0.3,0.3,0.4
	c0.3,1.1,0.9,0.8,1.6,0.4c0.4-0.3,0.8-0.6,1.3-0.8c0.3-0.1,0.8-0.1,0.9,0c1.1,1.5,2.5,1.6,4,0.7c0.1,0.7,0.2,1.3,0.3,2.2
	c0.4-0.6,0.5-0.8,0.7-1c0.8-0.9,1.3-2.7,2.9-0.9c0.1,0.2,0.6,0.2,0.8,0.1c2.1-1,2.8,0.9,3.9,1.8c1-0.5,2.1-1.1,3.2-1.5
	c0.5-0.2,1.1,0,1.6-0.1c2-0.4,3.9-0.8,6-0.3c0.3,0.1,0.7-0.4,1.1-0.8c0.6,0.3,1.2,0.7,1.9,1c1.4,0.7,2.9,1.2,4.4,1.9
	c0.7,0.3,1.3,0.8,2,1.2c0.4,0.2,0.8,0.4,1.3,0.5c1,0.1,1.9,0.1,3,0.2c0,1.8,0,3.5,0,5.2c0,4.2,0,8.4,0,12.6c0,0.8,0.4,1.6,0.8,2.3
	c0.7,1.2,2.2,2.1,1.5,3.9c-0.1,0.2,0.1,0.5,0.3,0.7c2,2.5,3,5.3,2.4,8.5c-0.1,0.7-0.4,1.5-0.7,2.1c-0.9,1.8-1.3,3.6-0.8,5.7
	c0.2,0.9-0.3,2.1-0.8,3c-0.8,1.3-1.7,2.4-0.5,3.8c-3.5,0.2-6.4,1.7-8.7,3.8c-5.4,4.7-11.3,8.6-17.4,12.2
	c-6.4,3.7-10.9,9.1-10.9,17.1c0,1.6,0.7,3.2,1,4.8c0.6,2.6,1.1,5.2,1.6,7.7c-0.8,0.5-1.4,0.8-2,1.1c-1.2,0.7-2.3,0.3-2.9-0.6
	c-0.9-1.3-2.1-1.5-3.4-1.5c-2.1-0.1-4-0.2-5.9-1.7c-1.6-1.2-3.8-1.7-5.7-2.3c-1.4-0.4-1.4-1.7-1.9-2.6c-0.7-1.1-1.1-2.5-1.8-3.6
	c-0.6-1.1-1.3-2.1-1.2-3.5c0-1.2-0.2-2.4-0.4-3.6c-0.1-0.9-0.6-1.5-1.5-2.1c-1.1-0.8-2-2-2.9-3.1c-0.6-0.7-0.8-1.8-1.5-2.4
	c-2.7-2.1-3.9-5.1-4.9-8.1c-1.3-3.7-3.7-6.3-6.2-9.1c-2.2-2.4-4.6-3.8-7.9-3.8c-1,0-2-0.3-3.1-0.5c-0.8-0.1-1.8-0.9-2.3,0.6
	c-0.1,0.3-1.3,0.4-2,0.5c-0.8,0.1-1.3,0.4-1.5,1.2c-0.5,1.6-1.1,3.1-1.6,4.6c-0.2,0.4-0.5,0.8-0.9,1.2c-0.4,0.4-1,0.7-1.2,1.1
	c-0.7,1.5-1.8,1.2-2.8,0.7c-3.8-2.1-8-3.4-11.1-6.5c-1.4-1.4-2.3-3.2-3.4-4.8c0-0.1-0.1-0.2,0-0.3c0.7-2-0.9-3.3-1.4-4.9
	c-0.9-3.3-3.5-4.5-5.8-6.3c-1.9-1.4-3.5-3.2-5.2-4.8c-0.2-0.2-0.4-0.6-0.7-0.7c-1.9-1.1-3.5-2.4-4.4-4.5c-0.1-0.3-0.7-0.4-1.1-0.6
	C4.9,309.4,4.4,308.5,4.5,306.7z"/>
</svg>
